<?xml version="1.0" standalone="no"?>
<!DOCTYPE svg PUBLIC "-//W3C//DTD SVG 20010904//EN"
 "http://www.w3.org/TR/2001/REC-SVG-20010904/DTD/svg10.dtd">
<svg version="1.0" xmlns="http://www.w3.org/2000/svg"
 width="208.000000pt" height="331.000000pt" viewBox="0 0 208.000000 331.000000"
 preserveAspectRatio="xMidYMid meet">

<g transform="translate(0.000000,331.000000) scale(0.100000,-0.100000)"
fill="#000000" stroke="none">
<path d="M1020 2855 c0 -344 2 -395 15 -395 13 0 15 51 15 395 0 344 -2 395
-15 395 -13 0 -15 -51 -15 -395z"/>
<path d="M580 2610 c0 -260 4 -400 10 -400 7 0 10 140 10 400 0 260 -3 400
-10 400 -6 0 -10 -140 -10 -400z"/>
<path d="M1460 2610 c0 -349 2 -400 15 -400 13 0 15 51 15 400 0 349 -2 400
-15 400 -13 0 -15 -51 -15 -400z"/>
<path d="M975 2303 c-99 -52 -563 -318 -577 -331 -17 -14 -18 -45 -18 -372 0
-289 3 -360 14 -369 41 -34 605 -343 626 -343 21 0 585 309 626 343 11 9 14
79 14 368 0 196 -4 361 -8 367 -6 9 -503 294 -589 338 -39 20 -50 20 -88 -1z
m257 -254 c117 -67 214 -122 215 -123 5 -4 -414 -236 -427 -236 -6 0 -106 53
-221 117 -193 109 -207 119 -186 130 12 7 108 61 212 122 105 60 191 110 192
110 2 1 99 -53 215 -120z m-496 -367 l209 -117 3 -244 c1 -145 -1 -241 -7
-239 -5 1 -102 55 -215 118 l-206 115 0 243 c0 133 2 242 4 242 1 0 97 -53
212 -118z m784 -124 l0 -243 -206 -115 c-113 -63 -210 -117 -215 -118 -6 -2
-8 94 -7 239 l3 244 205 116 c113 64 208 117 213 118 4 1 7 -108 7 -241z"/>
<path d="M577 880 c-18 -14 -29 -35 -33 -61 -4 -24 -12 -39 -21 -39 -9 0 -13
-8 -11 -22 2 -13 9 -22 16 -20 9 1 12 -29 12 -118 l0 -120 35 0 35 0 0 114 0
115 28 3 c19 2 28 9 30 26 3 19 -1 22 -27 22 -26 0 -31 4 -31 23 0 30 18 47
48 47 19 0 23 5 20 23 -4 32 -64 36 -101 7z"/>
<path d="M211 854 c-18 -10 -45 -35 -60 -58 -22 -33 -26 -51 -26 -110 0 -78
19 -123 66 -159 54 -40 163 -40 218 0 40 29 71 99 71 158 0 60 -32 129 -73
159 -38 28 -149 33 -196 10z m152 -55 c54 -41 59 -161 11 -219 -21 -24 -34
-30 -66 -30 -21 0 -48 5 -59 10 -66 36 -67 211 -2 249 30 17 88 13 116 -10z"/>
<path d="M1240 815 c0 -29 -4 -35 -21 -35 -15 0 -20 -5 -17 -22 2 -13 10 -23
18 -23 12 0 16 -21 20 -108 6 -121 9 -127 78 -127 33 0 42 4 42 18 0 9 -10 22
-22 27 -21 9 -23 18 -26 98 l-3 87 31 0 c25 0 30 4 30 25 0 21 -5 25 -30 25
-28 0 -30 3 -30 35 0 33 -2 35 -35 35 -33 0 -35 -2 -35 -35z"/>
<path d="M773 774 c-47 -23 -73 -71 -73 -133 0 -64 20 -105 61 -127 37 -19
108 -21 141 -4 27 14 57 50 58 68 0 22 -58 14 -84 -13 -14 -14 -34 -25 -44
-25 -23 0 -62 40 -62 63 0 15 13 17 101 17 l102 0 -6 45 c-8 58 -32 94 -74
111 -42 18 -80 17 -120 -2z m93 -42 c11 -7 34 -45 34 -56 0 -3 -29 -6 -65 -6
-51 0 -65 3 -65 15 0 37 64 69 96 47z"/>
<path d="M1115 763 c-24 -27 -25 -27 -25 -5 0 19 -5 22 -35 22 l-35 0 0 -140
0 -140 35 0 35 0 0 75 c0 97 18 143 60 151 25 6 30 11 30 35 0 38 -30 39 -65
2z"/>
<path d="M1475 776 c-34 -15 -50 -31 -59 -63 -7 -21 -4 -23 27 -23 26 0 36 5
45 25 22 48 92 26 92 -29 0 -12 -10 -16 -40 -16 -111 0 -174 -79 -117 -146 20
-23 31 -27 73 -26 37 0 52 5 66 22 l18 22 0 -21 c0 -17 6 -21 36 -21 l37 0 -5
113 c-2 61 -10 122 -16 133 -21 40 -100 55 -157 30z m105 -162 c0 -57 -59 -94
-94 -58 -21 20 -20 30 4 54 25 25 90 28 90 4z"/>
<path d="M1755 775 c-37 -20 -45 -32 -45 -73 0 -39 23 -61 87 -83 50 -17 70
-37 60 -63 -9 -24 -64 -21 -79 4 -15 23 -78 29 -78 8 1 -39 56 -70 123 -70 67
0 101 25 105 79 4 48 -14 67 -89 91 -46 15 -54 21 -54 42 0 34 48 42 65 11 8
-15 21 -21 45 -21 42 0 44 10 7 51 -34 38 -100 49 -147 24z"/>
<path d="M760 265 c-16 -19 -1 -19 24 0 16 12 17 15 4 15 -8 0 -21 -7 -28 -15z"/>
<path d="M1060 264 c0 -17 22 -14 28 4 2 7 -3 12 -12 12 -9 0 -16 -7 -16 -16z"/>
<path d="M470 195 c0 -60 3 -75 15 -75 11 0 15 13 16 58 l1 57 17 -55 c22 -72
44 -77 61 -13 19 71 30 75 30 10 0 -31 5 -57 10 -57 6 0 10 32 10 75 0 68 -2
75 -19 75 -15 0 -24 -13 -37 -55 -10 -30 -21 -52 -25 -50 -4 3 -12 27 -19 55
-10 43 -15 50 -36 50 -23 0 -24 -2 -24 -75z"/>
<path d="M735 230 c-20 -9 -16 -12 19 -14 29 -2 32 -26 3 -26 -33 0 -54 -26
-40 -48 7 -11 25 -17 52 -18 l41 -1 0 48 c0 38 -4 51 -19 59 -23 12 -29 12
-56 0z m43 -67 c-4 -22 -38 -30 -38 -10 0 14 13 24 33 26 5 1 7 -7 5 -16z"/>
<path d="M907 227 c-15 -10 -18 -22 -14 -60 3 -26 1 -47 -4 -47 -5 0 -9 -9 -9
-20 0 -24 42 -37 79 -24 19 7 26 17 26 34 0 20 -6 26 -30 28 -39 5 -58 22 -23
22 28 0 42 13 51 48 3 13 1 22 -6 22 -7 0 -21 3 -32 6 -11 3 -28 -1 -38 -9z
m43 -27 c0 -11 -6 -20 -14 -20 -18 0 -29 16 -21 30 11 18 35 11 35 -10z m10
-95 c0 -16 -45 -21 -54 -6 -8 12 4 21 31 21 14 0 23 -6 23 -15z"/>
<path d="M1189 230 c-46 -27 -23 -114 28 -108 32 4 42 25 12 24 -12 -1 -26 6
-32 15 -15 24 -1 49 28 49 28 0 34 15 9 24 -20 8 -26 7 -45 -4z"/>
<path d="M1340 230 c-15 -10 -11 -12 24 -14 28 -1 32 -26 4 -26 -34 0 -50 -14
-46 -41 3 -21 8 -24 51 -25 l47 -1 0 48 c0 38 -4 51 -19 59 -24 12 -42 13 -61
0z m48 -67 c-4 -22 -38 -30 -38 -10 0 14 13 24 33 26 5 1 7 -7 5 -16z"/>
<path d="M1506 225 c-19 -20 -12 -39 20 -53 34 -16 31 -35 -6 -30 -19 3 -29 1
-27 -6 6 -18 62 -19 76 -2 18 21 7 44 -24 56 -29 11 -24 34 5 25 10 -3 21 -2
24 3 3 6 -4 12 -17 16 -31 8 -34 8 -51 -9z"/>
<path d="M1060 175 c0 -42 3 -55 15 -55 12 0 15 13 15 55 0 42 -3 55 -15 55
-12 0 -15 -13 -15 -55z"/>
</g>
</svg>
