<?xml version="1.0" standalone="no"?>
<!DOCTYPE svg PUBLIC "-//W3C//DTD SVG 20010904//EN"
 "http://www.w3.org/TR/2001/REC-SVG-20010904/DTD/svg10.dtd">
<svg version="1.0" xmlns="http://www.w3.org/2000/svg"
 width="166.000000pt" height="245.000000pt" viewBox="0 0 166.000000 245.000000"
 preserveAspectRatio="xMidYMid meet">

<g transform="translate(0.000000,245.000000) scale(0.100000,-0.100000)"
fill="#000000" stroke="none">
<path d="M770 1995 c0 -344 2 -395 15 -395 13 0 15 51 15 395 0 344 -2 395
-15 395 -13 0 -15 -51 -15 -395z"/>
<path d="M330 1750 c0 -260 4 -400 10 -400 7 0 10 140 10 400 0 260 -3 400
-10 400 -6 0 -10 -140 -10 -400z"/>
<path d="M1210 1750 c0 -349 2 -400 15 -400 13 0 15 51 15 400 0 349 -2 400
-15 400 -13 0 -15 -51 -15 -400z"/>
<path d="M725 1443 c-99 -52 -563 -318 -577 -331 -17 -14 -18 -45 -18 -372 0
-289 3 -360 14 -369 41 -34 605 -343 626 -343 21 0 585 309 626 343 11 9 14
79 14 368 0 196 -4 361 -8 367 -6 9 -503 294 -589 338 -39 20 -50 20 -88 -1z
m257 -254 c117 -67 214 -122 215 -123 5 -4 -414 -236 -427 -236 -6 0 -106 53
-221 117 -193 109 -207 119 -186 130 12 7 108 61 212 122 105 60 191 110 192
110 2 1 99 -53 215 -120z m-496 -367 l209 -117 3 -244 c1 -145 -1 -241 -7
-239 -5 1 -102 55 -215 118 l-206 115 0 243 c0 133 2 242 4 242 1 0 97 -53
212 -118z m784 -124 l0 -243 -206 -115 c-113 -63 -210 -117 -215 -118 -6 -2
-8 94 -7 239 l3 244 205 116 c113 64 208 117 213 118 4 1 7 -108 7 -241z"/>
</g>
</svg>
